Coordinates
version=1
nRows=23
nColumns=38
inDegrees=no

Units are S.I. units (second, meters, Newtons, ...)
If the header above contains a line with 'inDegrees', this indicates whether rotational values are in degrees (yes) or radians (no).

endheader
time	pelvis_tilt	pelvis_list	pelvis_rotation	pelvis_tx	pelvis_ty	pelvis_tz	hip_flexion_r	hip_adduction_r	hip_rotation_r	knee_angle_r	ankle_angle_r	subtalar_angle_r	mtp_angle_r	hip_flexion_l	hip_adduction_l	hip_rotation_l	knee_angle_l	ankle_angle_l	subtalar_angle_l	mtp_angle_l	lumbar_extension	lumbar_bending	lumbar_rotation	arm_flex_r	arm_add_r	arm_rot_r	elbow_flex_r	pro_sup_r	wrist_flex_r	wrist_dev_r	arm_flex_l	arm_add_l	arm_rot_l	elbow_flex_l	pro_sup_l	wrist_flex_l	wrist_dev_l
125	-0.512329	1.31284	-0.853476	0.738412	1.81141	0.932958	0.185378	-0.0079353	-0.152799	0.637302	-0.291155	0	0	-0.382607	-0.198241	-0.472954	0.171632	-0.207201	0	0	-0.384117	0.244194	-0.0976341	0.0717701	-0.395809	0.35665	0.629019	1.26799	0	0	0.189706	-0.151373	0.324725	0.37089	1.5708	0	0
125.01	-0.445084	1.27709	-0.942825	0.73254	1.80933	0.937746	0.140265	0.0238521	-0.0944256	0.576897	-0.300208	0	0	-0.413628	-0.207326	-0.481595	0.2192	-0.198611	0	0	-0.44229	0.236377	-0.0727339	0.0842366	-0.386618	0.366069	0.620167	1.24986	0	0	0.195187	-0.167113	0.324799	0.389826	1.5708	0	0
125.02	-0.466976	1.2796	-0.924874	0.732571	1.80575	0.936663	0.152714	0.0305656	-0.0763356	0.549095	-0.298443	0	0	-0.412422	-0.210091	-0.483707	0.220594	-0.194984	0	0	-0.439761	0.239643	-0.0705956	0.0827894	-0.387532	0.368366	0.614054	1.24384	0	0	0.195269	-0.168149	0.326218	0.393467	1.5708	0	0
125.03	-0.533526	1.30871	-0.844352	0.734726	1.80456	0.932131	0.206393	0.020102	-0.0741161	0.540538	-0.293952	0	0	-0.386225	-0.209314	-0.467617	0.189544	-0.193936	0	0	-0.407342	0.24418	-0.0868083	0.0815557	-0.388948	0.367439	0.608138	1.23773	0	0	0.199359	-0.167411	0.329841	0.394884	1.5708	0	0
125.04	-0.566803	1.31731	-0.813391	0.734633	1.80066	0.93047	0.227066	0.0219578	-0.0592335	0.51837	-0.28791	0	0	-0.378009	-0.208887	-0.461226	0.187924	-0.188782	0	0	-0.396497	0.24428	-0.0875622	0.0820161	-0.387139	0.372842	0.595372	1.23071	0	0	0.197366	-0.173799	0.346068	0.40366	1.5708	0	0
125.05	-0.573783	1.31861	-0.805755	0.735269	1.79664	0.929626	0.234903	0.0210991	-0.0545856	0.495564	-0.285067	0	0	-0.379939	-0.209386	-0.46141	0.18878	-0.186992	0	0	-0.396172	0.246539	-0.0887432	0.0794844	-0.388175	0.3732	0.591013	1.22854	0	0	0.202163	-0.170519	0.344055	0.397531	1.5708	0	0
125.06	-0.580501	1.31775	-0.797685	0.735981	1.79232	0.928944	0.235215	0.0230472	-0.0442091	0.460244	-0.282336	0	0	-0.383507	-0.212569	-0.464199	0.191659	-0.181075	0	0	-0.396725	0.250395	-0.0913329	0.0794794	-0.389176	0.37857	0.58399	1.22165	0	0	0.202743	-0.170469	0.343503	0.399374	1.5708	0	0
125.07	-0.577426	1.31588	-0.798941	0.736658	1.7879	0.92849	0.234178	0.0227014	-0.0399788	0.430767	-0.279847	0	0	-0.38861	-0.215631	-0.469235	0.197657	-0.176367	0	0	-0.399815	0.253226	-0.0941603	0.0796014	-0.389987	0.383502	0.578142	1.21418	0	0	0.203337	-0.172139	0.347993	0.402972	1.5708	0	0
125.08	-0.580757	1.31533	-0.794075	0.737257	1.78332	0.927749	0.235911	0.0223185	-0.0384105	0.404301	-0.276477	0	0	-0.393478	-0.217651	-0.471325	0.198793	-0.173026	0	0	-0.400766	0.256195	-0.0957789	0.0785668	-0.390952	0.386285	0.573259	1.20761	0	0	0.204506	-0.172697	0.350579	0.405237	1.5708	0	0
125.09	-0.590712	1.31545	-0.783589	0.737776	1.77845	0.926746	0.239934	0.0227971	-0.0380314	0.381118	-0.272576	0	0	-0.398733	-0.219507	-0.473786	0.196396	-0.170265	0	0	-0.399517	0.259742	-0.09655	0.0769982	-0.392251	0.388604	0.569023	1.20185	0	0	0.204888	-0.173086	0.353978	0.407714	1.5708	0	0
125.1	-0.595181	1.31462	-0.778768	0.738273	1.77338	0.925914	0.241798	0.0228532	-0.0406167	0.359442	-0.269009	0	0	-0.405432	-0.221698	-0.478436	0.196464	-0.166816	0	0	-0.399871	0.262997	-0.0973177	0.0760509	-0.393816	0.392675	0.565465	1.19572	0	0	0.205217	-0.173639	0.358026	0.409985	1.5708	0	0
125.11	-0.593579	1.31439	-0.777107	0.738875	1.76859	0.925184	0.243192	0.0209006	-0.0455207	0.340251	-0.265218	0	0	-0.411209	-0.222903	-0.476953	0.196181	-0.163515	0	0	-0.401269	0.265676	-0.101512	0.077395	-0.394582	0.398376	0.561583	1.18865	0	0	0.204014	-0.180283	0.373187	0.420089	1.5708	0	0
125.12	-0.59493	1.31457	-0.773376	0.739351	1.76343	0.924297	0.246072	0.0194501	-0.0520448	0.325393	-0.261195	0	0	-0.417179	-0.223951	-0.476078	0.194888	-0.161507	0	0	-0.401397	0.268259	-0.103809	0.0769154	-0.395278	0.400404	0.558883	1.18512	0	0	0.20479	-0.180603	0.374012	0.421736	1.5708	0	0
125.13	-0.595515	1.31443	-0.772345	0.739592	1.75794	0.923285	0.249469	0.0190764	-0.0565724	0.315497	-0.258358	0	0	-0.425101	-0.224567	-0.478383	0.192877	-0.160436	0	0	-0.401345	0.269788	-0.102641	0.0745589	-0.396285	0.400284	0.557347	1.18364	0	0	0.208483	-0.176307	0.369329	0.415715	1.5708	0	0
125.14	-0.594559	1.31461	-0.773496	0.739679	1.75221	0.922349	0.251462	0.0188543	-0.0608644	0.304313	-0.254126	0	0	-0.432587	-0.225418	-0.482016	0.193566	-0.158123	0	0	-0.401293	0.270632	-0.100873	0.0726234	-0.396964	0.400384	0.555537	1.18138	0	0	0.209316	-0.174898	0.36696	0.415718	1.5708	0	0
125.15	-0.592959	1.31603	-0.773038	0.739949	1.74659	0.921293	0.254931	0.0172254	-0.0640656	0.297239	-0.248984	0	0	-0.438995	-0.225175	-0.481401	0.192108	-0.155735	0	0	-0.400271	0.27151	-0.10154	0.0715338	-0.397525	0.400453	0.554185	1.17958	0	0	0.209616	-0.174074	0.365008	0.416841	1.5708	0	0
125.16	-0.586642	1.31825	-0.77556	0.740423	1.741	0.920292	0.257515	0.0140186	-0.0654842	0.29163	-0.243181	0	0	-0.444984	-0.223766	-0.478291	0.190331	-0.153725	0	0	-0.39919	0.271884	-0.103724	0.0708302	-0.398059	0.399853	0.553238	1.17816	0	0	0.209581	-0.172405	0.359726	0.418096	1.5708	0	0
125.17	-0.580922	1.32038	-0.778689	0.740742	1.73512	0.919172	0.258721	0.0119849	-0.0642048	0.28503	-0.238074	0	0	-0.452058	-0.22221	-0.476619	0.187968	-0.151921	0	0	-0.397753	0.271808	-0.105485	0.0706014	-0.398551	0.399746	0.552668	1.17765	0	0	0.209309	-0.171398	0.355677	0.419658	1.5708	0	0
125.18	-0.575886	1.32202	-0.782552	0.740894	1.72886	0.917925	0.258348	0.0117052	-0.059277	0.277382	-0.231717	0	0	-0.460906	-0.2207	-0.476889	0.184309	-0.149134	0	0	-0.396212	0.271375	-0.106964	0.0711505	-0.399143	0.401364	0.552382	1.17756	0	0	0.20561	-0.176919	0.365747	0.430989	1.5708	0	0
125.19	-0.575294	1.3236	-0.78221	0.740896	1.72208	0.916569	0.262506	0.0112998	-0.0622043	0.281505	-0.229406	0	0	-0.469107	-0.221436	-0.481591	0.183083	-0.148847	0	0	-0.392772	0.271834	-0.107345	0.0700664	-0.399801	0.400572	0.552719	1.17761	0	0	0.206933	-0.173436	0.361984	0.424732	1.5708	0	0
125.2	-0.575194	1.32677	-0.779789	0.740959	1.71531	0.915116	0.268711	0.00954476	-0.0669241	0.289962	-0.22515	0	0	-0.474352	-0.222378	-0.484549	0.184272	-0.147451	0	0	-0.388331	0.271737	-0.109439	0.0696411	-0.399953	0.398772	0.553112	1.17788	0	0	0.204774	-0.173173	0.358519	0.426825	1.5708	0	0
125.21	-0.57381	1.33126	-0.776683	0.741201	1.70863	0.913572	0.274262	0.00675533	-0.0700536	0.296766	-0.222229	0	0	-0.478425	-0.222111	-0.483409	0.183551	-0.145495	0	0	-0.382986	0.271193	-0.113769	0.070346	-0.399596	0.396319	0.55293	1.17915	0	0	0.201763	-0.173687	0.354212	0.431155	1.5708	0	0
125.22	-0.559752	1.33455	-0.78667	0.741262	1.70206	0.912471	0.275157	0.00450775	-0.0642533	0.302832	-0.222626	0	0	-0.482471	-0.222505	-0.484772	0.190907	-0.143831	0	0	-0.381276	0.268913	-0.116183	0.0716682	-0.398776	0.392662	0.552496	1.18089	0	0	0.201194	-0.174325	0.35337	0.43362	1.5708	0	0
